<svg id="Layer_1" data-name="Layer 1" xmlns="http://www.w3.org/2000/svg" viewBox="0 0 135.79 135.03"><defs><style>.cls-1{fill:#34394f;}</style></defs><path class="cls-1" d="M69.36,64.49A31.23,31.23,0,0,0,92.17,55a31.25,31.25,0,0,0,9.45-22.82A31.23,31.23,0,0,0,92.17,9.41,31.23,31.23,0,0,0,69.36,0,31.21,31.21,0,0,0,46.55,9.41a31.2,31.2,0,0,0-9.46,22.81A31.22,31.22,0,0,0,46.55,55a31.21,31.21,0,0,0,22.81,9.45ZM52.1,15A23.33,23.33,0,0,1,69.36,7.81,23.33,23.33,0,0,1,86.62,15a23.34,23.34,0,0,1,7.15,17.26,23.31,23.31,0,0,1-7.15,17.26,23.3,23.3,0,0,1-17.26,7.16A23.3,23.3,0,0,1,52.1,49.48a23.28,23.28,0,0,1-7.16-17.26A23.31,23.31,0,0,1,52.1,15Zm0,0"/><path class="cls-1" d="M125.81,103a81.7,81.7,0,0,0-1.08-8.46A69.28,69.28,0,0,0,122.65,86a42.85,42.85,0,0,0-3.5-7.94,30,30,0,0,0-5.28-6.87,23.28,23.28,0,0,0-7.58-4.76,26.19,26.19,0,0,0-9.67-1.75c-1.37,0-2.69.56-5.24,2.22-1.58,1-3.42,2.21-5.47,3.52a31.12,31.12,0,0,1-7.07,3.12,27.55,27.55,0,0,1-17.28,0,31.12,31.12,0,0,1-7.07-3.12c-2-1.3-3.87-2.48-5.47-3.52-2.55-1.66-3.87-2.22-5.24-2.22a26.23,26.23,0,0,0-9.67,1.75,23.28,23.28,0,0,0-7.58,4.76,29.7,29.7,0,0,0-5.27,6.87A41.91,41.91,0,0,0,17.76,86a65.82,65.82,0,0,0-2.08,8.51A78.74,78.74,0,0,0,14.59,103c-.18,2.56-.27,5.22-.27,7.91,0,7,2.23,12.65,6.61,16.83s10.06,6.2,17,6.2h64.5c7,0,12.7-2.08,17-6.2s6.6-9.84,6.6-16.83c0-2.7-.09-5.36-.27-7.92ZM114.06,122c-2.86,2.72-6.65,4-11.61,4H38c-5,0-8.75-1.32-11.61-4s-4.17-6.32-4.17-11.14c0-2.51.09-5,.25-7.37a70.81,70.81,0,0,1,1-7.62,60.74,60.74,0,0,1,1.83-7.51,34.66,34.66,0,0,1,2.85-6.45A22.18,22.18,0,0,1,32,76.85a15.3,15.3,0,0,1,5-3.13,18.12,18.12,0,0,1,6.18-1.2c.28.15.77.43,1.56,1,1.61,1,3.47,2.25,5.53,3.56a38.71,38.71,0,0,0,8.87,4,35.34,35.34,0,0,0,22.12,0,39.22,39.22,0,0,0,8.88-4c2.1-1.35,3.91-2.51,5.52-3.56.8-.52,1.28-.8,1.56-1a18.07,18.07,0,0,1,6.18,1.2,15.3,15.3,0,0,1,5,3.13,22.18,22.18,0,0,1,3.88,5.08,34,34,0,0,1,2.85,6.45A59,59,0,0,1,117,95.89a71.13,71.13,0,0,1,1,7.62h0c.17,2.37.25,4.85.25,7.37,0,4.83-1.36,8.47-4.17,11.14Zm0,0"/></svg>